<?xml version="1.0" encoding="UTF-8" standalone="no"?>
<svg width="53.219mm" height="70.1524mm"
 viewBox="0.5 0.5 176 232"
 xmlns="http://www.w3.org/2000/svg" xmlns:xlink="http://www.w3.org/1999/xlink"  version="1.2" baseProfile="tiny">
<title>QM diagram</title>
<desc>QM diagram</desc>
<defs>
</defs>
<g fill="none" stroke="black" stroke-width="1" fill-rule="evenodd" stroke-linecap="square" stroke-linejoin="bevel" >

<g fill="none" stroke="#000000" stroke-opacity="1" stroke-width="1" stroke-linecap="square" stroke-linejoin="bevel" transform="matrix(1,0,0,1,0,0)"
font-family="MS Shell Dlg 2" font-size="9.625" font-weight="400" font-style="normal" 
>
</g>

<g fill="none" stroke="#000000" stroke-opacity="1" stroke-width="1" stroke-linecap="square" stroke-linejoin="bevel" transform="matrix(1,0,0,1,16,40)"
font-family="MS Shell Dlg 2" font-size="9.625" font-weight="400" font-style="normal" 
>
</g>

<g fill="#e0e0ff" fill-opacity="0.501961" stroke="#00008b" stroke-opacity="1" stroke-width="1" stroke-linecap="butt" stroke-linejoin="round" transform="matrix(1,0,0,1,16,40)"
font-family="Arial" font-size="12" font-weight="400" font-style="normal" 
>
<path vector-effect="none" fill-rule="evenodd" d="M0.5,14.5 C0.5,6.76801 6.76801,0.5 14.5,0.5 L114.5,0.5 C122.232,0.5 128.5,6.76801 128.5,14.5 L128.5,66.5 C128.5,74.232 122.232,80.5 114.5,80.5 L14.5,80.5 C6.76801,80.5 0.5,74.232 0.5,66.5 L0.5,14.5"/>
<polyline fill="none" vector-effect="none" points="0.5,16.5 128.5,16.5 " />
<text fill="#00008b" fill-opacity="1" stroke="none" xml:space="preserve" x="58" y="12" font-family="Arial" font-size="12" font-weight="400" font-style="normal" 
 >off</text>
<text fill="#00008b" fill-opacity="1" stroke="none" xml:space="preserve" x="10.5" y="28.5" font-family="Arial" font-size="12" font-weight="400" font-style="normal" 
 >e /</text>
<text fill="#00008b" fill-opacity="1" stroke="none" xml:space="preserve" x="10.5" y="43.5" font-family="Arial" font-size="12" font-weight="400" font-style="normal" 
 >  BSP_ledOff();</text>
</g>

<g fill="none" stroke="#000000" stroke-opacity="1" stroke-width="1" stroke-linecap="square" stroke-linejoin="bevel" transform="matrix(1,0,0,1,16,40)"
font-family="MS Shell Dlg 2" font-size="9.625" font-weight="400" font-style="normal" 
>
</g>

<g fill="none" stroke="#000000" stroke-opacity="1" stroke-width="1" stroke-linecap="square" stroke-linejoin="bevel" transform="matrix(1,0,0,1,16,136)"
font-family="MS Shell Dlg 2" font-size="9.625" font-weight="400" font-style="normal" 
>
</g>

<g fill="#e0e0ff" fill-opacity="0.501961" stroke="#00008b" stroke-opacity="1" stroke-width="1" stroke-linecap="butt" stroke-linejoin="round" transform="matrix(1,0,0,1,16,136)"
font-family="Arial" font-size="12" font-weight="400" font-style="normal" 
>
<path vector-effect="none" fill-rule="evenodd" d="M0.5,14.5 C0.5,6.76801 6.76801,0.5 14.5,0.5 L114.5,0.5 C122.232,0.5 128.5,6.76801 128.5,14.5 L128.5,66.5 C128.5,74.232 122.232,80.5 114.5,80.5 L14.5,80.5 C6.76801,80.5 0.5,74.232 0.5,66.5 L0.5,14.5"/>
<polyline fill="none" vector-effect="none" points="0.5,16.5 128.5,16.5 " />
<text fill="#00008b" fill-opacity="1" stroke="none" xml:space="preserve" x="57.5" y="12" font-family="Arial" font-size="12" font-weight="400" font-style="normal" 
 >on</text>
<text fill="#00008b" fill-opacity="1" stroke="none" xml:space="preserve" x="10.5" y="28.5" font-family="Arial" font-size="12" font-weight="400" font-style="normal" 
 >e /</text>
<text fill="#00008b" fill-opacity="1" stroke="none" xml:space="preserve" x="10.5" y="43.5" font-family="Arial" font-size="12" font-weight="400" font-style="normal" 
 >  BSP_ledOn();</text>
</g>

<g fill="none" stroke="#000000" stroke-opacity="1" stroke-width="1" stroke-linecap="square" stroke-linejoin="bevel" transform="matrix(1,0,0,1,16,136)"
font-family="MS Shell Dlg 2" font-size="9.625" font-weight="400" font-style="normal" 
>
</g>

<g fill="none" stroke="#000000" stroke-opacity="1" stroke-width="1" stroke-linecap="square" stroke-linejoin="bevel" transform="matrix(1,0,0,1,16,24)"
font-family="MS Shell Dlg 2" font-size="9.625" font-weight="400" font-style="normal" 
>
</g>

<g fill="none" stroke="#8b0000" stroke-opacity="1" stroke-width="1" stroke-linecap="square" stroke-linejoin="round" transform="matrix(1,0,0,1,16,24)"
font-family="MS Shell Dlg 2" font-size="9.625" font-weight="400" font-style="normal" 
>
<polyline fill="none" vector-effect="none" points="0.5,0.5 160.5,0.5 " />
<polyline fill="none" vector-effect="none" points="160.5,0.5 160.5,32.5 " />
<polyline fill="none" vector-effect="none" points="160.5,32.5 128.5,32.5 " />
</g>

<g fill="#8b0000" fill-opacity="1" stroke="#8b0000" stroke-opacity="1" stroke-width="1" stroke-linecap="square" stroke-linejoin="round" transform="matrix(1,0,0,1,16,24)"
font-family="Arial" font-size="12" font-weight="400" font-style="normal" 
>
<circle cx="0.5" cy="0.5" r="4"/>
</g>

<g fill="none" stroke="#8b0000" stroke-opacity="1" stroke-width="1" stroke-linecap="square" stroke-linejoin="round" transform="matrix(1,0,0,1,16,24)"
font-family="Arial" font-size="12" font-weight="400" font-style="normal" 
>
<polyline fill="none" vector-effect="none" points="136.5,28.5 128.5,32.5 136.5,36.5 " />
<text fill="#8b0000" fill-opacity="1" stroke="none" xml:space="preserve" x="2.5" y="-3.5" font-family="Arial" font-size="12" font-weight="400" font-style="normal" 
 > /</text>
</g>

<g fill="none" stroke="#000000" stroke-opacity="1" stroke-width="1" stroke-linecap="square" stroke-linejoin="bevel" transform="matrix(1,0,0,1,16,24)"
font-family="MS Shell Dlg 2" font-size="9.625" font-weight="400" font-style="normal" 
>
</g>

<g fill="none" stroke="#000000" stroke-opacity="1" stroke-width="1" stroke-linecap="square" stroke-linejoin="bevel" transform="matrix(1,0,0,1,16,104)"
font-family="MS Shell Dlg 2" font-size="9.625" font-weight="400" font-style="normal" 
>
</g>

<g fill="none" stroke="#8b0000" stroke-opacity="1" stroke-width="1" stroke-linecap="square" stroke-linejoin="round" transform="matrix(1,0,0,1,16,104)"
font-family="MS Shell Dlg 2" font-size="9.625" font-weight="400" font-style="normal" 
>
<polyline fill="none" vector-effect="none" points="0.5,0.5 144.5,0.5 " />
<polyline fill="none" vector-effect="none" points="144.5,0.5 144.5,48.5 " />
<polyline fill="none" vector-effect="none" points="144.5,48.5 128.5,48.5 " />
</g>

<g fill="none" stroke="#8b0000" stroke-opacity="1" stroke-width="1" stroke-linecap="square" stroke-linejoin="round" transform="matrix(1,0,0,1,16,104)"
font-family="Arial" font-size="12" font-weight="400" font-style="normal" 
>
<polyline fill="none" vector-effect="none" points="136.5,44.5 128.5,48.5 136.5,52.5 " />
<text fill="#8b0000" fill-opacity="1" stroke="none" xml:space="preserve" x="2.5" y="-3.5" font-family="Arial" font-size="12" font-weight="400" font-style="normal" 
 >TIMEOUT</text>
</g>

<g fill="none" stroke="#000000" stroke-opacity="1" stroke-width="1" stroke-linecap="square" stroke-linejoin="bevel" transform="matrix(1,0,0,1,16,104)"
font-family="MS Shell Dlg 2" font-size="9.625" font-weight="400" font-style="normal" 
>
</g>

<g fill="none" stroke="#000000" stroke-opacity="1" stroke-width="1" stroke-linecap="square" stroke-linejoin="bevel" transform="matrix(1,0,0,1,16,200)"
font-family="MS Shell Dlg 2" font-size="9.625" font-weight="400" font-style="normal" 
>
</g>

<g fill="none" stroke="#8b0000" stroke-opacity="1" stroke-width="1" stroke-linecap="square" stroke-linejoin="round" transform="matrix(1,0,0,1,16,200)"
font-family="MS Shell Dlg 2" font-size="9.625" font-weight="400" font-style="normal" 
>
<polyline fill="none" vector-effect="none" points="0.5,0.5 160.5,0.5 " />
<polyline fill="none" vector-effect="none" points="160.5,0.5 160.5,-119.5 " />
<polyline fill="none" vector-effect="none" points="160.5,-119.5 128.5,-119.5 " />
</g>

<g fill="none" stroke="#8b0000" stroke-opacity="1" stroke-width="1" stroke-linecap="square" stroke-linejoin="round" transform="matrix(1,0,0,1,16,200)"
font-family="Arial" font-size="12" font-weight="400" font-style="normal" 
>
<polyline fill="none" vector-effect="none" points="136.5,-123.5 128.5,-119.5 136.5,-115.5 " />
<text fill="#8b0000" fill-opacity="1" stroke="none" xml:space="preserve" x="2.5" y="-3.5" font-family="Arial" font-size="12" font-weight="400" font-style="normal" 
 >TIMEOUT</text>
</g>

<g fill="none" stroke="#000000" stroke-opacity="1" stroke-width="1" stroke-linecap="square" stroke-linejoin="bevel" transform="matrix(1,0,0,1,16,200)"
font-family="MS Shell Dlg 2" font-size="9.625" font-weight="400" font-style="normal" 
>
</g>

<g fill="none" stroke="#000000" stroke-opacity="1" stroke-width="1" stroke-linecap="square" stroke-linejoin="bevel" transform="matrix(1,0,0,1,0,0)"
font-family="MS Shell Dlg 2" font-size="9.625" font-weight="400" font-style="normal" 
>
</g>
</g>
</svg>
