<?xml version="1.0" encoding="UTF-8" standalone="no"?>
<svg width="217.714mm" height="249.162mm"
 viewBox="0.5 0.5 720 824"
 xmlns="http://www.w3.org/2000/svg" xmlns:xlink="http://www.w3.org/1999/xlink"  version="1.2" baseProfile="tiny">
<title>QM diagram</title>
<desc>QM diagram</desc>
<defs>
</defs>
<g fill="none" stroke="black" stroke-width="1" fill-rule="evenodd" stroke-linecap="square" stroke-linejoin="bevel" >

<g fill="none" stroke="#000000" stroke-opacity="1" stroke-width="1" stroke-linecap="square" stroke-linejoin="bevel" transform="matrix(1,0,0,1,0,0)"
font-family="MS Shell Dlg 2" font-size="9.625" font-weight="400" font-style="normal" 
>
</g>

<g fill="none" stroke="#000000" stroke-opacity="1" stroke-width="1" stroke-linecap="square" stroke-linejoin="bevel" transform="matrix(1,0,0,1,16,48)"
font-family="MS Shell Dlg 2" font-size="9.625" font-weight="400" font-style="normal" 
>
</g>

<g fill="#e0e0ff" fill-opacity="0.501961" stroke="#00008b" stroke-opacity="1" stroke-width="1" stroke-linecap="butt" stroke-linejoin="round" transform="matrix(1,0,0,1,16,48)"
font-family="Arial" font-size="12" font-weight="400" font-style="normal" 
>
<path vector-effect="none" fill-rule="evenodd" d="M0.5,14.5 C0.5,6.76801 6.76801,0.5 14.5,0.5 L658.5,0.5 C666.232,0.5 672.5,6.76801 672.5,14.5 L672.5,722.5 C672.5,730.232 666.232,736.5 658.5,736.5 L14.5,736.5 C6.76801,736.5 0.5,730.232 0.5,722.5 L0.5,14.5"/>
<polyline fill="none" vector-effect="none" points="0.5,16.5 672.5,16.5 " />
<text fill="#00008b" fill-opacity="1" stroke="none" xml:space="preserve" x="321" y="12" font-family="Arial" font-size="12" font-weight="400" font-style="normal" 
 >active</text>
</g>

<g fill="none" stroke="#000000" stroke-opacity="1" stroke-width="1" stroke-linecap="square" stroke-linejoin="bevel" transform="matrix(1,0,0,1,16,48)"
font-family="MS Shell Dlg 2" font-size="9.625" font-weight="400" font-style="normal" 
>
</g>

<g fill="none" stroke="#000000" stroke-opacity="1" stroke-width="1" stroke-linecap="square" stroke-linejoin="bevel" transform="matrix(1,0,0,1,32,112)"
font-family="MS Shell Dlg 2" font-size="9.625" font-weight="400" font-style="normal" 
>
</g>

<g fill="#e0e0ff" fill-opacity="0.501961" stroke="#00008b" stroke-opacity="1" stroke-width="1" stroke-linecap="butt" stroke-linejoin="round" transform="matrix(1,0,0,1,32,112)"
font-family="Arial" font-size="12" font-weight="400" font-style="normal" 
>
<path vector-effect="none" fill-rule="evenodd" d="M0.5,14.5 C0.5,6.76801 6.76801,0.5 14.5,0.5 L258.5,0.5 C266.232,0.5 272.5,6.76801 272.5,14.5 L272.5,66.5 C272.5,74.232 266.232,80.5 258.5,80.5 L14.5,80.5 C6.76801,80.5 0.5,74.232 0.5,66.5 L0.5,14.5"/>
<polyline fill="none" vector-effect="none" points="0.5,16.5 272.5,16.5 " />
<text fill="#00008b" fill-opacity="1" stroke="none" xml:space="preserve" x="115" y="12" font-family="Arial" font-size="12" font-weight="400" font-style="normal" 
 >m0tick0</text>
</g>

<g fill="none" stroke="#000000" stroke-opacity="1" stroke-width="1" stroke-linecap="square" stroke-linejoin="bevel" transform="matrix(1,0,0,1,32,112)"
font-family="MS Shell Dlg 2" font-size="9.625" font-weight="400" font-style="normal" 
>
</g>

<g fill="none" stroke="#000000" stroke-opacity="1" stroke-width="1" stroke-linecap="square" stroke-linejoin="bevel" transform="matrix(1,0,0,1,32,224)"
font-family="MS Shell Dlg 2" font-size="9.625" font-weight="400" font-style="normal" 
>
</g>

<g fill="#e0e0ff" fill-opacity="0.501961" stroke="#00008b" stroke-opacity="1" stroke-width="1" stroke-linecap="butt" stroke-linejoin="round" transform="matrix(1,0,0,1,32,224)"
font-family="Arial" font-size="12" font-weight="400" font-style="normal" 
>
<path vector-effect="none" fill-rule="evenodd" d="M0.5,14.5 C0.5,6.76801 6.76801,0.5 14.5,0.5 L258.5,0.5 C266.232,0.5 272.5,6.76801 272.5,14.5 L272.5,66.5 C272.5,74.232 266.232,80.5 258.5,80.5 L14.5,80.5 C6.76801,80.5 0.5,74.232 0.5,66.5 L0.5,14.5"/>
<polyline fill="none" vector-effect="none" points="0.5,16.5 272.5,16.5 " />
<text fill="#00008b" fill-opacity="1" stroke="none" xml:space="preserve" x="115" y="12" font-family="Arial" font-size="12" font-weight="400" font-style="normal" 
 >m0tick1</text>
</g>

<g fill="none" stroke="#000000" stroke-opacity="1" stroke-width="1" stroke-linecap="square" stroke-linejoin="bevel" transform="matrix(1,0,0,1,32,224)"
font-family="MS Shell Dlg 2" font-size="9.625" font-weight="400" font-style="normal" 
>
</g>

<g fill="none" stroke="#000000" stroke-opacity="1" stroke-width="1" stroke-linecap="square" stroke-linejoin="bevel" transform="matrix(1,0,0,1,368,112)"
font-family="MS Shell Dlg 2" font-size="9.625" font-weight="400" font-style="normal" 
>
</g>

<g fill="#e0e0ff" fill-opacity="0.501961" stroke="#00008b" stroke-opacity="1" stroke-width="1" stroke-linecap="butt" stroke-linejoin="round" transform="matrix(1,0,0,1,368,112)"
font-family="Arial" font-size="12" font-weight="400" font-style="normal" 
>
<path vector-effect="none" fill-rule="evenodd" d="M0.5,14.5 C0.5,6.76801 6.76801,0.5 14.5,0.5 L258.5,0.5 C266.232,0.5 272.5,6.76801 272.5,14.5 L272.5,66.5 C272.5,74.232 266.232,80.5 258.5,80.5 L14.5,80.5 C6.76801,80.5 0.5,74.232 0.5,66.5 L0.5,14.5"/>
<polyline fill="none" vector-effect="none" points="0.5,16.5 272.5,16.5 " />
<text fill="#00008b" fill-opacity="1" stroke="none" xml:space="preserve" x="115" y="12" font-family="Arial" font-size="12" font-weight="400" font-style="normal" 
 >m1tick0</text>
</g>

<g fill="none" stroke="#000000" stroke-opacity="1" stroke-width="1" stroke-linecap="square" stroke-linejoin="bevel" transform="matrix(1,0,0,1,368,112)"
font-family="MS Shell Dlg 2" font-size="9.625" font-weight="400" font-style="normal" 
>
</g>

<g fill="none" stroke="#000000" stroke-opacity="1" stroke-width="1" stroke-linecap="square" stroke-linejoin="bevel" transform="matrix(1,0,0,1,368,224)"
font-family="MS Shell Dlg 2" font-size="9.625" font-weight="400" font-style="normal" 
>
</g>

<g fill="#e0e0ff" fill-opacity="0.501961" stroke="#00008b" stroke-opacity="1" stroke-width="1" stroke-linecap="butt" stroke-linejoin="round" transform="matrix(1,0,0,1,368,224)"
font-family="Arial" font-size="12" font-weight="400" font-style="normal" 
>
<path vector-effect="none" fill-rule="evenodd" d="M0.5,14.5 C0.5,6.76801 6.76801,0.5 14.5,0.5 L258.5,0.5 C266.232,0.5 272.5,6.76801 272.5,14.5 L272.5,66.5 C272.5,74.232 266.232,80.5 258.5,80.5 L14.5,80.5 C6.76801,80.5 0.5,74.232 0.5,66.5 L0.5,14.5"/>
<polyline fill="none" vector-effect="none" points="0.5,16.5 272.5,16.5 " />
<text fill="#00008b" fill-opacity="1" stroke="none" xml:space="preserve" x="115" y="12" font-family="Arial" font-size="12" font-weight="400" font-style="normal" 
 >m1tick1</text>
</g>

<g fill="none" stroke="#000000" stroke-opacity="1" stroke-width="1" stroke-linecap="square" stroke-linejoin="bevel" transform="matrix(1,0,0,1,368,224)"
font-family="MS Shell Dlg 2" font-size="9.625" font-weight="400" font-style="normal" 
>
</g>

<g fill="none" stroke="#000000" stroke-opacity="1" stroke-width="1" stroke-linecap="square" stroke-linejoin="bevel" transform="matrix(1,0,0,1,368,448)"
font-family="MS Shell Dlg 2" font-size="9.625" font-weight="400" font-style="normal" 
>
</g>

<g fill="#e0e0ff" fill-opacity="0.501961" stroke="#00008b" stroke-opacity="1" stroke-width="1" stroke-linecap="butt" stroke-linejoin="round" transform="matrix(1,0,0,1,368,448)"
font-family="Arial" font-size="12" font-weight="400" font-style="normal" 
>
<path vector-effect="none" fill-rule="evenodd" d="M0.5,14.5 C0.5,6.76801 6.76801,0.5 14.5,0.5 L258.5,0.5 C266.232,0.5 272.5,6.76801 272.5,14.5 L272.5,66.5 C272.5,74.232 266.232,80.5 258.5,80.5 L14.5,80.5 C6.76801,80.5 0.5,74.232 0.5,66.5 L0.5,14.5"/>
<polyline fill="none" vector-effect="none" points="0.5,16.5 272.5,16.5 " />
<text fill="#00008b" fill-opacity="1" stroke="none" xml:space="preserve" x="115" y="12" font-family="Arial" font-size="12" font-weight="400" font-style="normal" 
 >m1tick3</text>
</g>

<g fill="none" stroke="#000000" stroke-opacity="1" stroke-width="1" stroke-linecap="square" stroke-linejoin="bevel" transform="matrix(1,0,0,1,368,448)"
font-family="MS Shell Dlg 2" font-size="9.625" font-weight="400" font-style="normal" 
>
</g>

<g fill="none" stroke="#000000" stroke-opacity="1" stroke-width="1" stroke-linecap="square" stroke-linejoin="bevel" transform="matrix(1,0,0,1,368,336)"
font-family="MS Shell Dlg 2" font-size="9.625" font-weight="400" font-style="normal" 
>
</g>

<g fill="#e0e0ff" fill-opacity="0.501961" stroke="#00008b" stroke-opacity="1" stroke-width="1" stroke-linecap="butt" stroke-linejoin="round" transform="matrix(1,0,0,1,368,336)"
font-family="Arial" font-size="12" font-weight="400" font-style="normal" 
>
<path vector-effect="none" fill-rule="evenodd" d="M0.5,14.5 C0.5,6.76801 6.76801,0.5 14.5,0.5 L258.5,0.5 C266.232,0.5 272.5,6.76801 272.5,14.5 L272.5,66.5 C272.5,74.232 266.232,80.5 258.5,80.5 L14.5,80.5 C6.76801,80.5 0.5,74.232 0.5,66.5 L0.5,14.5"/>
<polyline fill="none" vector-effect="none" points="0.5,16.5 272.5,16.5 " />
<text fill="#00008b" fill-opacity="1" stroke="none" xml:space="preserve" x="115" y="12" font-family="Arial" font-size="12" font-weight="400" font-style="normal" 
 >m1tick2</text>
</g>

<g fill="none" stroke="#000000" stroke-opacity="1" stroke-width="1" stroke-linecap="square" stroke-linejoin="bevel" transform="matrix(1,0,0,1,368,336)"
font-family="MS Shell Dlg 2" font-size="9.625" font-weight="400" font-style="normal" 
>
</g>

<g fill="none" stroke="#000000" stroke-opacity="1" stroke-width="1" stroke-linecap="square" stroke-linejoin="bevel" transform="matrix(1,0,0,1,32,336)"
font-family="MS Shell Dlg 2" font-size="9.625" font-weight="400" font-style="normal" 
>
</g>

<g fill="#e0e0ff" fill-opacity="0.501961" stroke="#00008b" stroke-opacity="1" stroke-width="1" stroke-linecap="butt" stroke-linejoin="round" transform="matrix(1,0,0,1,32,336)"
font-family="Arial" font-size="12" font-weight="400" font-style="normal" 
>
<path vector-effect="none" fill-rule="evenodd" d="M0.5,14.5 C0.5,6.76801 6.76801,0.5 14.5,0.5 L258.5,0.5 C266.232,0.5 272.5,6.76801 272.5,14.5 L272.5,66.5 C272.5,74.232 266.232,80.5 258.5,80.5 L14.5,80.5 C6.76801,80.5 0.5,74.232 0.5,66.5 L0.5,14.5"/>
<polyline fill="none" vector-effect="none" points="0.5,16.5 272.5,16.5 " />
<text fill="#00008b" fill-opacity="1" stroke="none" xml:space="preserve" x="115" y="12" font-family="Arial" font-size="12" font-weight="400" font-style="normal" 
 >m0tick2</text>
</g>

<g fill="none" stroke="#000000" stroke-opacity="1" stroke-width="1" stroke-linecap="square" stroke-linejoin="bevel" transform="matrix(1,0,0,1,32,336)"
font-family="MS Shell Dlg 2" font-size="9.625" font-weight="400" font-style="normal" 
>
</g>

<g fill="none" stroke="#000000" stroke-opacity="1" stroke-width="1" stroke-linecap="square" stroke-linejoin="bevel" transform="matrix(1,0,0,1,32,448)"
font-family="MS Shell Dlg 2" font-size="9.625" font-weight="400" font-style="normal" 
>
</g>

<g fill="#e0e0ff" fill-opacity="0.501961" stroke="#00008b" stroke-opacity="1" stroke-width="1" stroke-linecap="butt" stroke-linejoin="round" transform="matrix(1,0,0,1,32,448)"
font-family="Arial" font-size="12" font-weight="400" font-style="normal" 
>
<path vector-effect="none" fill-rule="evenodd" d="M0.5,14.5 C0.5,6.76801 6.76801,0.5 14.5,0.5 L258.5,0.5 C266.232,0.5 272.5,6.76801 272.5,14.5 L272.5,66.5 C272.5,74.232 266.232,80.5 258.5,80.5 L14.5,80.5 C6.76801,80.5 0.5,74.232 0.5,66.5 L0.5,14.5"/>
<polyline fill="none" vector-effect="none" points="0.5,16.5 272.5,16.5 " />
<text fill="#00008b" fill-opacity="1" stroke="none" xml:space="preserve" x="115" y="12" font-family="Arial" font-size="12" font-weight="400" font-style="normal" 
 >m0tick3</text>
</g>

<g fill="none" stroke="#000000" stroke-opacity="1" stroke-width="1" stroke-linecap="square" stroke-linejoin="bevel" transform="matrix(1,0,0,1,32,448)"
font-family="MS Shell Dlg 2" font-size="9.625" font-weight="400" font-style="normal" 
>
</g>

<g fill="none" stroke="#000000" stroke-opacity="1" stroke-width="1" stroke-linecap="square" stroke-linejoin="bevel" transform="matrix(1,0,0,1,368,560)"
font-family="MS Shell Dlg 2" font-size="9.625" font-weight="400" font-style="normal" 
>
</g>

<g fill="#e0e0ff" fill-opacity="0.501961" stroke="#00008b" stroke-opacity="1" stroke-width="1" stroke-linecap="butt" stroke-linejoin="round" transform="matrix(1,0,0,1,368,560)"
font-family="Arial" font-size="12" font-weight="400" font-style="normal" 
>
<path vector-effect="none" fill-rule="evenodd" d="M0.5,14.5 C0.5,6.76801 6.76801,0.5 14.5,0.5 L258.5,0.5 C266.232,0.5 272.5,6.76801 272.5,14.5 L272.5,66.5 C272.5,74.232 266.232,80.5 258.5,80.5 L14.5,80.5 C6.76801,80.5 0.5,74.232 0.5,66.5 L0.5,14.5"/>
<polyline fill="none" vector-effect="none" points="0.5,16.5 272.5,16.5 " />
<text fill="#00008b" fill-opacity="1" stroke="none" xml:space="preserve" x="115" y="12" font-family="Arial" font-size="12" font-weight="400" font-style="normal" 
 >m1tick4</text>
</g>

<g fill="none" stroke="#000000" stroke-opacity="1" stroke-width="1" stroke-linecap="square" stroke-linejoin="bevel" transform="matrix(1,0,0,1,368,560)"
font-family="MS Shell Dlg 2" font-size="9.625" font-weight="400" font-style="normal" 
>
</g>

<g fill="none" stroke="#000000" stroke-opacity="1" stroke-width="1" stroke-linecap="square" stroke-linejoin="bevel" transform="matrix(1,0,0,1,368,672)"
font-family="MS Shell Dlg 2" font-size="9.625" font-weight="400" font-style="normal" 
>
</g>

<g fill="#e0e0ff" fill-opacity="0.501961" stroke="#00008b" stroke-opacity="1" stroke-width="1" stroke-linecap="butt" stroke-linejoin="round" transform="matrix(1,0,0,1,368,672)"
font-family="Arial" font-size="12" font-weight="400" font-style="normal" 
>
<path vector-effect="none" fill-rule="evenodd" d="M0.5,14.5 C0.5,6.76801 6.76801,0.5 14.5,0.5 L258.5,0.5 C266.232,0.5 272.5,6.76801 272.5,14.5 L272.5,66.5 C272.5,74.232 266.232,80.5 258.5,80.5 L14.5,80.5 C6.76801,80.5 0.5,74.232 0.5,66.5 L0.5,14.5"/>
<polyline fill="none" vector-effect="none" points="0.5,16.5 272.5,16.5 " />
<text fill="#00008b" fill-opacity="1" stroke="none" xml:space="preserve" x="115" y="12" font-family="Arial" font-size="12" font-weight="400" font-style="normal" 
 >m1tick5</text>
</g>

<g fill="none" stroke="#000000" stroke-opacity="1" stroke-width="1" stroke-linecap="square" stroke-linejoin="bevel" transform="matrix(1,0,0,1,368,672)"
font-family="MS Shell Dlg 2" font-size="9.625" font-weight="400" font-style="normal" 
>
</g>

<g fill="none" stroke="#000000" stroke-opacity="1" stroke-width="1" stroke-linecap="square" stroke-linejoin="bevel" transform="matrix(1,0,0,1,16,16)"
font-family="MS Shell Dlg 2" font-size="9.625" font-weight="400" font-style="normal" 
>
</g>

<g fill="none" stroke="#8b0000" stroke-opacity="1" stroke-width="1" stroke-linecap="square" stroke-linejoin="round" transform="matrix(1,0,0,1,16,16)"
font-family="MS Shell Dlg 2" font-size="9.625" font-weight="400" font-style="normal" 
>
<polyline fill="none" vector-effect="none" points="0.5,0.5 224.5,0.5 " />
<polyline fill="none" vector-effect="none" points="224.5,0.5 224.5,96.5 " />
</g>

<g fill="#8b0000" fill-opacity="1" stroke="#8b0000" stroke-opacity="1" stroke-width="1" stroke-linecap="square" stroke-linejoin="round" transform="matrix(1,0,0,1,16,16)"
font-family="Arial" font-size="12" font-weight="400" font-style="normal" 
>
<circle cx="0.5" cy="0.5" r="4"/>
</g>

<g fill="none" stroke="#8b0000" stroke-opacity="1" stroke-width="1" stroke-linecap="square" stroke-linejoin="round" transform="matrix(1,0,0,1,16,16)"
font-family="Arial" font-size="12" font-weight="400" font-style="normal" 
>
<polyline fill="none" vector-effect="none" points="220.5,88.5 224.5,96.5 228.5,88.5 " />
</g>

<g fill="none" stroke="#000000" stroke-opacity="1" stroke-width="1" stroke-linecap="square" stroke-linejoin="bevel" transform="matrix(1,0,0,1,16,16)"
font-family="MS Shell Dlg 2" font-size="9.625" font-weight="400" font-style="normal" 
>
</g>

<g fill="none" stroke="#000000" stroke-opacity="1" stroke-width="1" stroke-linecap="square" stroke-linejoin="bevel" transform="matrix(1,0,0,1,16,96)"
font-family="MS Shell Dlg 2" font-size="9.625" font-weight="400" font-style="normal" 
>
</g>

<g fill="none" stroke="#8b0000" stroke-opacity="1" stroke-width="1" stroke-linecap="square" stroke-linejoin="round" transform="matrix(1,0,0,1,16,96)"
font-family="MS Shell Dlg 2" font-size="9.625" font-weight="400" font-style="normal" 
>
<polyline fill="none" vector-effect="none" points="0.5,0.5 104.5,0.5 " />
<polyline fill="none" vector-effect="none" points="104.5,0.5 104.5,16.5 " />
</g>

<g fill="none" stroke="#8b0000" stroke-opacity="1" stroke-width="1" stroke-linecap="square" stroke-linejoin="round" transform="matrix(1,0,0,1,16,96)"
font-family="Arial" font-size="12" font-weight="400" font-style="normal" 
>
<polyline fill="none" vector-effect="none" points="100.5,8.5 104.5,16.5 108.5,8.5 " />
</g>

<g fill="none" stroke="#8b0000" stroke-opacity="1" stroke-width="1" stroke-linecap="square" stroke-linejoin="round" transform="matrix(1,0,0,1,16,96)"
font-family="Arial" font-size="12" font-weight="400" font-style="normal" 
>
<text fill="#8b0000" fill-opacity="1" stroke="none" xml:space="preserve" x="1" y="-3" font-family="Arial" font-size="12" font-weight="400" font-style="normal" 
 >MODE0</text>
</g>

<g fill="none" stroke="#8b0000" stroke-opacity="1" stroke-width="1" stroke-linecap="square" stroke-linejoin="round" transform="matrix(1,0,0,1,16,96)"
font-family="Arial" font-size="12" font-weight="400" font-style="normal" 
>
</g>

<g fill="none" stroke="#8b0000" stroke-opacity="1" stroke-width="1" stroke-linecap="square" stroke-linejoin="round" transform="matrix(1,0,0,1,0,0)"
font-family="Arial" font-size="12" font-weight="400" font-style="normal" 
>
</g>

<g fill="none" stroke="#8b0000" stroke-opacity="1" stroke-width="1" stroke-linecap="square" stroke-linejoin="round" transform="matrix(1,0,0,1,16,96)"
font-family="Arial" font-size="12" font-weight="400" font-style="normal" 
>
</g>

<g fill="none" stroke="#000000" stroke-opacity="1" stroke-width="1" stroke-linecap="square" stroke-linejoin="bevel" transform="matrix(1,0,0,1,16,96)"
font-family="MS Shell Dlg 2" font-size="9.625" font-weight="400" font-style="normal" 
>
</g>

<g fill="none" stroke="#000000" stroke-opacity="1" stroke-width="1" stroke-linecap="square" stroke-linejoin="bevel" transform="matrix(1,0,0,1,32,144)"
font-family="MS Shell Dlg 2" font-size="9.625" font-weight="400" font-style="normal" 
>
</g>

<g fill="none" stroke="#8b0000" stroke-opacity="1" stroke-width="1" stroke-linecap="square" stroke-linejoin="round" transform="matrix(1,0,0,1,32,144)"
font-family="MS Shell Dlg 2" font-size="9.625" font-weight="400" font-style="normal" 
>
<polyline fill="none" vector-effect="none" points="0.5,0.5 288.5,0.5 " />
<polyline fill="none" vector-effect="none" points="288.5,0.5 288.5,96.5 " />
<polyline fill="none" vector-effect="none" points="288.5,96.5 272.5,96.5 " />
</g>

<g fill="none" stroke="#8b0000" stroke-opacity="1" stroke-width="1" stroke-linecap="square" stroke-linejoin="round" transform="matrix(1,0,0,1,32,144)"
font-family="Arial" font-size="12" font-weight="400" font-style="normal" 
>
<polyline fill="none" vector-effect="none" points="280.5,92.5 272.5,96.5 280.5,100.5 " />
<text fill="#8b0000" fill-opacity="1" stroke="none" xml:space="preserve" x="1" y="-3" font-family="Arial" font-size="12" font-weight="400" font-style="normal" 
 >TICK /</text>
<text fill="#8b0000" fill-opacity="1" stroke="none" xml:space="preserve" x="1" y="12" font-family="Arial" font-size="12" font-weight="400" font-style="normal" 
 >  QACTIVE_POST(AO_Periodic4, &amp;runEvt, 0U);</text>
</g>

<g fill="none" stroke="#000000" stroke-opacity="1" stroke-width="1" stroke-linecap="square" stroke-linejoin="bevel" transform="matrix(1,0,0,1,32,144)"
font-family="MS Shell Dlg 2" font-size="9.625" font-weight="400" font-style="normal" 
>
</g>

<g fill="none" stroke="#000000" stroke-opacity="1" stroke-width="1" stroke-linecap="square" stroke-linejoin="bevel" transform="matrix(1,0,0,1,32,256)"
font-family="MS Shell Dlg 2" font-size="9.625" font-weight="400" font-style="normal" 
>
</g>

<g fill="none" stroke="#8b0000" stroke-opacity="1" stroke-width="1" stroke-linecap="square" stroke-linejoin="round" transform="matrix(1,0,0,1,32,256)"
font-family="MS Shell Dlg 2" font-size="9.625" font-weight="400" font-style="normal" 
>
<polyline fill="none" vector-effect="none" points="0.5,0.5 288.5,0.5 " />
<polyline fill="none" vector-effect="none" points="288.5,0.5 288.5,96.5 " />
<polyline fill="none" vector-effect="none" points="288.5,96.5 272.5,96.5 " />
</g>

<g fill="none" stroke="#8b0000" stroke-opacity="1" stroke-width="1" stroke-linecap="square" stroke-linejoin="round" transform="matrix(1,0,0,1,32,256)"
font-family="Arial" font-size="12" font-weight="400" font-style="normal" 
>
<polyline fill="none" vector-effect="none" points="280.5,92.5 272.5,96.5 280.5,100.5 " />
<text fill="#8b0000" fill-opacity="1" stroke="none" xml:space="preserve" x="1" y="-3" font-family="Arial" font-size="12" font-weight="400" font-style="normal" 
 >TICK</text>
</g>

<g fill="none" stroke="#000000" stroke-opacity="1" stroke-width="1" stroke-linecap="square" stroke-linejoin="bevel" transform="matrix(1,0,0,1,32,256)"
font-family="MS Shell Dlg 2" font-size="9.625" font-weight="400" font-style="normal" 
>
</g>

<g fill="none" stroke="#000000" stroke-opacity="1" stroke-width="1" stroke-linecap="square" stroke-linejoin="bevel" transform="matrix(1,0,0,1,368,144)"
font-family="MS Shell Dlg 2" font-size="9.625" font-weight="400" font-style="normal" 
>
</g>

<g fill="none" stroke="#8b0000" stroke-opacity="1" stroke-width="1" stroke-linecap="square" stroke-linejoin="round" transform="matrix(1,0,0,1,368,144)"
font-family="MS Shell Dlg 2" font-size="9.625" font-weight="400" font-style="normal" 
>
<polyline fill="none" vector-effect="none" points="0.5,0.5 288.5,0.5 " />
<polyline fill="none" vector-effect="none" points="288.5,0.5 288.5,96.5 " />
<polyline fill="none" vector-effect="none" points="288.5,96.5 272.5,96.5 " />
</g>

<g fill="none" stroke="#8b0000" stroke-opacity="1" stroke-width="1" stroke-linecap="square" stroke-linejoin="round" transform="matrix(1,0,0,1,368,144)"
font-family="Arial" font-size="12" font-weight="400" font-style="normal" 
>
<polyline fill="none" vector-effect="none" points="280.5,92.5 272.5,96.5 280.5,100.5 " />
<text fill="#8b0000" fill-opacity="1" stroke="none" xml:space="preserve" x="1" y="-3" font-family="Arial" font-size="12" font-weight="400" font-style="normal" 
 >TICK /</text>
<text fill="#8b0000" fill-opacity="1" stroke="none" xml:space="preserve" x="1" y="12" font-family="Arial" font-size="12" font-weight="400" font-style="normal" 
 >  QACTIVE_POST(AO_Periodic4, &amp;runEvt, 0U);</text>
<text fill="#8b0000" fill-opacity="1" stroke="none" xml:space="preserve" x="1" y="27" font-family="Arial" font-size="12" font-weight="400" font-style="normal" 
 >  QACTIVE_POST(AO_Sporadic3, &amp;runEvt, 0U);</text>
</g>

<g fill="none" stroke="#000000" stroke-opacity="1" stroke-width="1" stroke-linecap="square" stroke-linejoin="bevel" transform="matrix(1,0,0,1,368,144)"
font-family="MS Shell Dlg 2" font-size="9.625" font-weight="400" font-style="normal" 
>
</g>

<g fill="none" stroke="#000000" stroke-opacity="1" stroke-width="1" stroke-linecap="square" stroke-linejoin="bevel" transform="matrix(1,0,0,1,688,96)"
font-family="MS Shell Dlg 2" font-size="9.625" font-weight="400" font-style="normal" 
>
</g>

<g fill="none" stroke="#8b0000" stroke-opacity="1" stroke-width="1" stroke-linecap="square" stroke-linejoin="round" transform="matrix(1,0,0,1,688,96)"
font-family="MS Shell Dlg 2" font-size="9.625" font-weight="400" font-style="normal" 
>
<polyline fill="none" vector-effect="none" points="0.5,0.5 -223.5,0.5 " />
<polyline fill="none" vector-effect="none" points="-223.5,0.5 -223.5,16.5 " />
</g>

<g fill="none" stroke="#8b0000" stroke-opacity="1" stroke-width="1" stroke-linecap="square" stroke-linejoin="round" transform="matrix(1,0,0,1,688,96)"
font-family="Arial" font-size="12" font-weight="400" font-style="normal" 
>
<polyline fill="none" vector-effect="none" points="-227.5,8.5 -223.5,16.5 -219.5,8.5 " />
</g>

<g fill="none" stroke="#8b0000" stroke-opacity="1" stroke-width="1" stroke-linecap="square" stroke-linejoin="round" transform="matrix(1,0,0,1,688,96)"
font-family="Arial" font-size="12" font-weight="400" font-style="normal" 
>
<text fill="#8b0000" fill-opacity="1" stroke="none" xml:space="preserve" x="-63" y="-3" font-family="Arial" font-size="12" font-weight="400" font-style="normal" 
 >MODE1</text>
</g>

<g fill="none" stroke="#8b0000" stroke-opacity="1" stroke-width="1" stroke-linecap="square" stroke-linejoin="round" transform="matrix(1,0,0,1,688,96)"
font-family="Arial" font-size="12" font-weight="400" font-style="normal" 
>
</g>

<g fill="none" stroke="#8b0000" stroke-opacity="1" stroke-width="1" stroke-linecap="square" stroke-linejoin="round" transform="matrix(1,0,0,1,0,0)"
font-family="Arial" font-size="12" font-weight="400" font-style="normal" 
>
</g>

<g fill="none" stroke="#8b0000" stroke-opacity="1" stroke-width="1" stroke-linecap="square" stroke-linejoin="round" transform="matrix(1,0,0,1,688,96)"
font-family="Arial" font-size="12" font-weight="400" font-style="normal" 
>
</g>

<g fill="none" stroke="#000000" stroke-opacity="1" stroke-width="1" stroke-linecap="square" stroke-linejoin="bevel" transform="matrix(1,0,0,1,688,96)"
font-family="MS Shell Dlg 2" font-size="9.625" font-weight="400" font-style="normal" 
>
</g>

<g fill="none" stroke="#000000" stroke-opacity="1" stroke-width="1" stroke-linecap="square" stroke-linejoin="bevel" transform="matrix(1,0,0,1,368,256)"
font-family="MS Shell Dlg 2" font-size="9.625" font-weight="400" font-style="normal" 
>
</g>

<g fill="none" stroke="#8b0000" stroke-opacity="1" stroke-width="1" stroke-linecap="square" stroke-linejoin="round" transform="matrix(1,0,0,1,368,256)"
font-family="MS Shell Dlg 2" font-size="9.625" font-weight="400" font-style="normal" 
>
<polyline fill="none" vector-effect="none" points="0.5,0.5 288.5,0.5 " />
<polyline fill="none" vector-effect="none" points="288.5,0.5 288.5,96.5 " />
<polyline fill="none" vector-effect="none" points="288.5,96.5 272.5,96.5 " />
</g>

<g fill="none" stroke="#8b0000" stroke-opacity="1" stroke-width="1" stroke-linecap="square" stroke-linejoin="round" transform="matrix(1,0,0,1,368,256)"
font-family="Arial" font-size="12" font-weight="400" font-style="normal" 
>
<polyline fill="none" vector-effect="none" points="280.5,92.5 272.5,96.5 280.5,100.5 " />
<text fill="#8b0000" fill-opacity="1" stroke="none" xml:space="preserve" x="1" y="-3" font-family="Arial" font-size="12" font-weight="400" font-style="normal" 
 >TICK /</text>
<text fill="#8b0000" fill-opacity="1" stroke="none" xml:space="preserve" x="1" y="12" font-family="Arial" font-size="12" font-weight="400" font-style="normal" 
 >  QACTIVE_POST(AO_Periodic4, &amp;runEvt, 0U);</text>
<text fill="#8b0000" fill-opacity="1" stroke="none" xml:space="preserve" x="1" y="27" font-family="Arial" font-size="12" font-weight="400" font-style="normal" 
 >  QACTIVE_POST(AO_Sporadic3, &amp;runEvt, 0U);</text>
</g>

<g fill="none" stroke="#000000" stroke-opacity="1" stroke-width="1" stroke-linecap="square" stroke-linejoin="bevel" transform="matrix(1,0,0,1,368,256)"
font-family="MS Shell Dlg 2" font-size="9.625" font-weight="400" font-style="normal" 
>
</g>

<g fill="none" stroke="#000000" stroke-opacity="1" stroke-width="1" stroke-linecap="square" stroke-linejoin="bevel" transform="matrix(1,0,0,1,368,480)"
font-family="MS Shell Dlg 2" font-size="9.625" font-weight="400" font-style="normal" 
>
</g>

<g fill="none" stroke="#8b0000" stroke-opacity="1" stroke-width="1" stroke-linecap="square" stroke-linejoin="round" transform="matrix(1,0,0,1,368,480)"
font-family="MS Shell Dlg 2" font-size="9.625" font-weight="400" font-style="normal" 
>
<polyline fill="none" vector-effect="none" points="0.5,0.5 288.5,0.5 " />
<polyline fill="none" vector-effect="none" points="288.5,0.5 288.5,96.5 " />
<polyline fill="none" vector-effect="none" points="288.5,96.5 272.5,96.5 " />
</g>

<g fill="none" stroke="#8b0000" stroke-opacity="1" stroke-width="1" stroke-linecap="square" stroke-linejoin="round" transform="matrix(1,0,0,1,368,480)"
font-family="Arial" font-size="12" font-weight="400" font-style="normal" 
>
<polyline fill="none" vector-effect="none" points="280.5,92.5 272.5,96.5 280.5,100.5 " />
<text fill="#8b0000" fill-opacity="1" stroke="none" xml:space="preserve" x="1" y="-3" font-family="Arial" font-size="12" font-weight="400" font-style="normal" 
 >TICK /</text>
<text fill="#8b0000" fill-opacity="1" stroke="none" xml:space="preserve" x="1" y="12" font-family="Arial" font-size="12" font-weight="400" font-style="normal" 
 >  QACTIVE_POST(AO_Periodic4, &amp;runEvt, 0U);</text>
<text fill="#8b0000" fill-opacity="1" stroke="none" xml:space="preserve" x="1" y="27" font-family="Arial" font-size="12" font-weight="400" font-style="normal" 
 >  QACTIVE_POST(AO_Sporadic3, &amp;runEvt, 0U);</text>
</g>

<g fill="none" stroke="#000000" stroke-opacity="1" stroke-width="1" stroke-linecap="square" stroke-linejoin="bevel" transform="matrix(1,0,0,1,368,480)"
font-family="MS Shell Dlg 2" font-size="9.625" font-weight="400" font-style="normal" 
>
</g>

<g fill="none" stroke="#000000" stroke-opacity="1" stroke-width="1" stroke-linecap="square" stroke-linejoin="bevel" transform="matrix(1,0,0,1,368,368)"
font-family="MS Shell Dlg 2" font-size="9.625" font-weight="400" font-style="normal" 
>
</g>

<g fill="none" stroke="#8b0000" stroke-opacity="1" stroke-width="1" stroke-linecap="square" stroke-linejoin="round" transform="matrix(1,0,0,1,368,368)"
font-family="MS Shell Dlg 2" font-size="9.625" font-weight="400" font-style="normal" 
>
<polyline fill="none" vector-effect="none" points="0.5,0.5 288.5,0.5 " />
<polyline fill="none" vector-effect="none" points="288.5,0.5 288.5,96.5 " />
<polyline fill="none" vector-effect="none" points="288.5,96.5 272.5,96.5 " />
</g>

<g fill="none" stroke="#8b0000" stroke-opacity="1" stroke-width="1" stroke-linecap="square" stroke-linejoin="round" transform="matrix(1,0,0,1,368,368)"
font-family="Arial" font-size="12" font-weight="400" font-style="normal" 
>
<polyline fill="none" vector-effect="none" points="280.5,92.5 272.5,96.5 280.5,100.5 " />
<text fill="#8b0000" fill-opacity="1" stroke="none" xml:space="preserve" x="1" y="-3" font-family="Arial" font-size="12" font-weight="400" font-style="normal" 
 >TICK /</text>
<text fill="#8b0000" fill-opacity="1" stroke="none" xml:space="preserve" x="1" y="12" font-family="Arial" font-size="12" font-weight="400" font-style="normal" 
 >  QACTIVE_POST(AO_Periodic4, &amp;runEvt, 0U);</text>
<text fill="#8b0000" fill-opacity="1" stroke="none" xml:space="preserve" x="1" y="27" font-family="Arial" font-size="12" font-weight="400" font-style="normal" 
 >  QACTIVE_POST(AO_Sporadic2, &amp;runEvt, 0U);</text>
</g>

<g fill="none" stroke="#000000" stroke-opacity="1" stroke-width="1" stroke-linecap="square" stroke-linejoin="bevel" transform="matrix(1,0,0,1,368,368)"
font-family="MS Shell Dlg 2" font-size="9.625" font-weight="400" font-style="normal" 
>
</g>

<g fill="none" stroke="#000000" stroke-opacity="1" stroke-width="1" stroke-linecap="square" stroke-linejoin="bevel" transform="matrix(1,0,0,1,32,368)"
font-family="MS Shell Dlg 2" font-size="9.625" font-weight="400" font-style="normal" 
>
</g>

<g fill="none" stroke="#8b0000" stroke-opacity="1" stroke-width="1" stroke-linecap="square" stroke-linejoin="round" transform="matrix(1,0,0,1,32,368)"
font-family="MS Shell Dlg 2" font-size="9.625" font-weight="400" font-style="normal" 
>
<polyline fill="none" vector-effect="none" points="0.5,0.5 288.5,0.5 " />
<polyline fill="none" vector-effect="none" points="288.5,0.5 288.5,96.5 " />
<polyline fill="none" vector-effect="none" points="288.5,96.5 272.5,96.5 " />
</g>

<g fill="none" stroke="#8b0000" stroke-opacity="1" stroke-width="1" stroke-linecap="square" stroke-linejoin="round" transform="matrix(1,0,0,1,32,368)"
font-family="Arial" font-size="12" font-weight="400" font-style="normal" 
>
<polyline fill="none" vector-effect="none" points="280.5,92.5 272.5,96.5 280.5,100.5 " />
<text fill="#8b0000" fill-opacity="1" stroke="none" xml:space="preserve" x="1" y="-3" font-family="Arial" font-size="12" font-weight="400" font-style="normal" 
 >TICK /</text>
<text fill="#8b0000" fill-opacity="1" stroke="none" xml:space="preserve" x="1" y="12" font-family="Arial" font-size="12" font-weight="400" font-style="normal" 
 >  QACTIVE_POST(AO_Periodic4, &amp;runEvt, 0U);</text>
</g>

<g fill="none" stroke="#000000" stroke-opacity="1" stroke-width="1" stroke-linecap="square" stroke-linejoin="bevel" transform="matrix(1,0,0,1,32,368)"
font-family="MS Shell Dlg 2" font-size="9.625" font-weight="400" font-style="normal" 
>
</g>

<g fill="none" stroke="#000000" stroke-opacity="1" stroke-width="1" stroke-linecap="square" stroke-linejoin="bevel" transform="matrix(1,0,0,1,32,480)"
font-family="MS Shell Dlg 2" font-size="9.625" font-weight="400" font-style="normal" 
>
</g>

<g fill="none" stroke="#8b0000" stroke-opacity="1" stroke-width="1" stroke-linecap="square" stroke-linejoin="round" transform="matrix(1,0,0,1,32,480)"
font-family="MS Shell Dlg 2" font-size="9.625" font-weight="400" font-style="normal" 
>
<polyline fill="none" vector-effect="none" points="0.5,0.5 304.5,0.5 " />
<polyline fill="none" vector-effect="none" points="304.5,0.5 304.5,-351.5 " />
<polyline fill="none" vector-effect="none" points="304.5,-351.5 272.5,-351.5 " />
</g>

<g fill="none" stroke="#8b0000" stroke-opacity="1" stroke-width="1" stroke-linecap="square" stroke-linejoin="round" transform="matrix(1,0,0,1,32,480)"
font-family="Arial" font-size="12" font-weight="400" font-style="normal" 
>
<polyline fill="none" vector-effect="none" points="280.5,-355.5 272.5,-351.5 280.5,-347.5 " />
<text fill="#8b0000" fill-opacity="1" stroke="none" xml:space="preserve" x="1" y="-3" font-family="Arial" font-size="12" font-weight="400" font-style="normal" 
 >TICK /</text>
<text fill="#8b0000" fill-opacity="1" stroke="none" xml:space="preserve" x="1" y="12" font-family="Arial" font-size="12" font-weight="400" font-style="normal" 
 >  QACTIVE_POST(AO_Periodic1, &amp;runEvt, 0U);</text>
</g>

<g fill="none" stroke="#000000" stroke-opacity="1" stroke-width="1" stroke-linecap="square" stroke-linejoin="bevel" transform="matrix(1,0,0,1,32,480)"
font-family="MS Shell Dlg 2" font-size="9.625" font-weight="400" font-style="normal" 
>
</g>

<g fill="none" stroke="#000000" stroke-opacity="1" stroke-width="1" stroke-linecap="square" stroke-linejoin="bevel" transform="matrix(1,0,0,1,368,592)"
font-family="MS Shell Dlg 2" font-size="9.625" font-weight="400" font-style="normal" 
>
</g>

<g fill="none" stroke="#8b0000" stroke-opacity="1" stroke-width="1" stroke-linecap="square" stroke-linejoin="round" transform="matrix(1,0,0,1,368,592)"
font-family="MS Shell Dlg 2" font-size="9.625" font-weight="400" font-style="normal" 
>
<polyline fill="none" vector-effect="none" points="0.5,0.5 288.5,0.5 " />
<polyline fill="none" vector-effect="none" points="288.5,0.5 288.5,96.5 " />
<polyline fill="none" vector-effect="none" points="288.5,96.5 272.5,96.5 " />
</g>

<g fill="none" stroke="#8b0000" stroke-opacity="1" stroke-width="1" stroke-linecap="square" stroke-linejoin="round" transform="matrix(1,0,0,1,368,592)"
font-family="Arial" font-size="12" font-weight="400" font-style="normal" 
>
<polyline fill="none" vector-effect="none" points="280.5,92.5 272.5,96.5 280.5,100.5 " />
<text fill="#8b0000" fill-opacity="1" stroke="none" xml:space="preserve" x="1" y="-3" font-family="Arial" font-size="12" font-weight="400" font-style="normal" 
 >TICK /</text>
<text fill="#8b0000" fill-opacity="1" stroke="none" xml:space="preserve" x="1" y="12" font-family="Arial" font-size="12" font-weight="400" font-style="normal" 
 >  QACTIVE_POST(AO_Periodic4, &amp;runEvt, 0U);</text>
<text fill="#8b0000" fill-opacity="1" stroke="none" xml:space="preserve" x="1" y="27" font-family="Arial" font-size="12" font-weight="400" font-style="normal" 
 >  QACTIVE_POST(AO_Periodic1, &amp;runEvt, 0U);</text>
</g>

<g fill="none" stroke="#000000" stroke-opacity="1" stroke-width="1" stroke-linecap="square" stroke-linejoin="bevel" transform="matrix(1,0,0,1,368,592)"
font-family="MS Shell Dlg 2" font-size="9.625" font-weight="400" font-style="normal" 
>
</g>

<g fill="none" stroke="#000000" stroke-opacity="1" stroke-width="1" stroke-linecap="square" stroke-linejoin="bevel" transform="matrix(1,0,0,1,368,704)"
font-family="MS Shell Dlg 2" font-size="9.625" font-weight="400" font-style="normal" 
>
</g>

<g fill="none" stroke="#8b0000" stroke-opacity="1" stroke-width="1" stroke-linecap="square" stroke-linejoin="round" transform="matrix(1,0,0,1,368,704)"
font-family="MS Shell Dlg 2" font-size="9.625" font-weight="400" font-style="normal" 
>
<polyline fill="none" vector-effect="none" points="0.5,0.5 304.5,0.5 " />
<polyline fill="none" vector-effect="none" points="304.5,0.5 304.5,-575.5 " />
<polyline fill="none" vector-effect="none" points="304.5,-575.5 272.5,-575.5 " />
</g>

<g fill="none" stroke="#8b0000" stroke-opacity="1" stroke-width="1" stroke-linecap="square" stroke-linejoin="round" transform="matrix(1,0,0,1,368,704)"
font-family="Arial" font-size="12" font-weight="400" font-style="normal" 
>
<polyline fill="none" vector-effect="none" points="280.5,-579.5 272.5,-575.5 280.5,-571.5 " />
<text fill="#8b0000" fill-opacity="1" stroke="none" xml:space="preserve" x="1" y="-3" font-family="Arial" font-size="12" font-weight="400" font-style="normal" 
 >TICK /</text>
<text fill="#8b0000" fill-opacity="1" stroke="none" xml:space="preserve" x="1" y="12" font-family="Arial" font-size="12" font-weight="400" font-style="normal" 
 >  QACTIVE_POST(AO_Periodic4, &amp;runEvt, 0U);</text>
<text fill="#8b0000" fill-opacity="1" stroke="none" xml:space="preserve" x="1" y="27" font-family="Arial" font-size="12" font-weight="400" font-style="normal" 
 >  QACTIVE_POST(AO_Sporadic3, &amp;runEvt, 0U);</text>
</g>

<g fill="none" stroke="#000000" stroke-opacity="1" stroke-width="1" stroke-linecap="square" stroke-linejoin="bevel" transform="matrix(1,0,0,1,368,704)"
font-family="MS Shell Dlg 2" font-size="9.625" font-weight="400" font-style="normal" 
>
</g>

<g fill="none" stroke="#000000" stroke-opacity="1" stroke-width="1" stroke-linecap="square" stroke-linejoin="bevel" transform="matrix(1,0,0,1,0,0)"
font-family="MS Shell Dlg 2" font-size="9.625" font-weight="400" font-style="normal" 
>
</g>
</g>
</svg>
